<svg xmlns="http://www.w3.org/2000/svg" viewBox="0 0 800 700" role="img" aria-label="Futuristic interface illustration">
  <rect width="800" height="700" rx="40" fill="#07050f"/>
  <rect x="70" y="80" width="660" height="540" rx="32" fill="url(#bg)" stroke="rgba(255,255,255,0.12)"/>
  <rect x="110" y="130" width="300" height="180" rx="24" fill="#0f0b1c" stroke="#ffffff22"/>
  <rect x="440" y="130" width="250" height="180" rx="24" fill="#120d21" stroke="#ffffff22"/>
  <rect x="110" y="340" width="580" height="220" rx="24" fill="#120d21" stroke="#ffffff22"/>
  <circle cx="250" cy="220" r="74" fill="url(#ring)"/>
  <circle cx="250" cy="220" r="44" fill="#06040b"/>
  <path d="M520 220c0-44 36-80 80-80" stroke="#ff8b3d" stroke-width="18" fill="none" stroke-linecap="round"/>
  <path d="M600 140c44 0 80 36 80 80" stroke="#7c4dff" stroke-width="18" fill="none" stroke-linecap="round"/>
  <rect x="145" y="384" width="212" height="18" rx="9" fill="#7c4dff"/>
  <rect x="145" y="420" width="160" height="16" rx="8" fill="#ffffff55"/>
  <rect x="145" y="452" width="180" height="16" rx="8" fill="#ffffff55"/>
  <rect x="420" y="384" width="220" height="100" rx="18" fill="url(#grad2)"/>
  <defs>
    <linearGradient id="bg" x1="0" y1="0" x2="1" y2="1">
      <stop offset="0%" stop-color="#0b0915"/>
      <stop offset="100%" stop-color="#16102a"/>
    </linearGradient>
    <linearGradient id="ring" x1="0" y1="0" x2="1" y2="1">
      <stop offset="0%" stop-color="#7c4dff"/>
      <stop offset="100%" stop-color="#ff4d5e"/>
    </linearGradient>
    <linearGradient id="grad2" x1="0" y1="0" x2="1" y2="1">
      <stop offset="0%" stop-color="#ff8b3d"/>
      <stop offset="100%" stop-color="#ff4d5e"/>
    </linearGradient>
  </defs>
</svg>